<svg width="32" height="32" viewBox="0 0 32 32" fill="none" xmlns="http://www.w3.org/2000/svg">
<path d="M18 5.5H6C5.17157 5.5 4.5 6.17157 4.5 7V19C4.5 19.8284 5.17157 20.5 6 20.5H8V23H6C3.79086 23 2 21.2091 2 19V7C2 4.79086 3.79086 3 6 3H18C20.2091 3 22 4.79086 22 7V8H19.5V7C19.5 6.17157 18.8284 5.5 18 5.5Z" fill="#F0F2F6"/>
<path fill-rule="evenodd" clip-rule="evenodd" d="M10 14C10 11.7909 11.7909 10 14 10H26C28.2091 10 30 11.7909 30 14V26C30 28.2091 28.2091 30 26 30H14C11.7909 30 10 28.2091 10 26V14ZM14 12.5H26C26.8284 12.5 27.5 13.1716 27.5 14V26C27.5 26.8284 26.8284 27.5 26 27.5H14C13.1716 27.5 12.5 26.8284 12.5 26V14C12.5 13.1716 13.1716 12.5 14 12.5Z" fill="#F0F2F6"/>
</svg>
