<svg width="32" height="32" viewBox="0 0 32 32" fill="none" xmlns="http://www.w3.org/2000/svg">
<path fill-rule="evenodd" clip-rule="evenodd" d="M24.1095 14.8905C24.6302 15.4112 24.6302 16.2554 24.1095 16.7761L16.7761 24.1095C16.2554 24.6302 15.4112 24.6302 14.8905 24.1095L7.55719 16.7761C7.03649 16.2554 7.03649 15.4112 7.55719 14.8905C8.07789 14.3698 8.92211 14.3698 9.44281 14.8905L15.8333 21.281L22.2239 14.8905C22.7446 14.3698 23.5888 14.3698 24.1095 14.8905Z" fill="#F0F2F6"/>
<path fill-rule="evenodd" clip-rule="evenodd" d="M24.1095 7.2239C24.6302 7.7446 24.6302 8.58882 24.1095 9.10952L16.7761 16.4428C16.2554 16.9635 15.4112 16.9635 14.8905 16.4428L7.55719 9.10951C7.03649 8.58881 7.03649 7.74459 7.55719 7.22389C8.07789 6.7032 8.92211 6.7032 9.44281 7.2239L15.8333 13.6144L22.2239 7.2239C22.7446 6.7032 23.5888 6.7032 24.1095 7.2239Z" fill="#F0F2F6"/>
</svg>
