<svg width="32" height="32" viewBox="0 0 32 32" fill="none" xmlns="http://www.w3.org/2000/svg">
<path fill-rule="evenodd" clip-rule="evenodd" d="M7.55715 16.4428C7.03645 15.9222 7.03645 15.0779 7.55715 14.5572L14.8905 7.2239C15.4112 6.7032 16.2554 6.7032 16.7761 7.2239L24.1094 14.5572C24.6301 15.0779 24.6301 15.9222 24.1094 16.4429C23.5887 16.9636 22.7445 16.9636 22.2238 16.4429L15.8333 10.0523L9.44277 16.4429C8.92207 16.9635 8.07785 16.9635 7.55715 16.4428Z" fill="#F0F2F6"/>
<path fill-rule="evenodd" clip-rule="evenodd" d="M7.55715 24.1095C7.03645 23.5888 7.03645 22.7446 7.55715 22.2239L14.8905 14.8905C15.4112 14.3698 16.2554 14.3698 16.7761 14.8905L24.1094 22.2239C24.6301 22.7446 24.6301 23.5888 24.1094 24.1095C23.5887 24.6302 22.7445 24.6302 22.2238 24.1095L15.8333 17.719L9.44277 24.1095C8.92207 24.6302 8.07785 24.6302 7.55715 24.1095Z" fill="#F0F2F6"/>
</svg>
