<svg width="22" height="22" viewBox="0 0 22 22" fill="none" xmlns="http://www.w3.org/2000/svg">
<path d="M12.3333 1.66659C12.3333 0.930206 11.7363 0.333252 10.9999 0.333252C10.2635 0.333252 9.66658 0.930206 9.66658 1.66659V9.66658H1.66659C0.930205 9.66658 0.333252 10.2635 0.333252 10.9999C0.333252 11.7363 0.930205 12.3332 1.66659 12.3332H9.66658V20.3333C9.66658 21.0696 10.2635 21.6666 10.9999 21.6666C11.7363 21.6666 12.3333 21.0696 12.3333 20.3333V12.3333H20.3333C21.0696 12.3333 21.6666 11.7363 21.6666 10.9999C21.6666 10.2635 21.0696 9.66658 20.3333 9.66658H12.3333V1.66659Z" fill="#F0F2F6"/>
</svg>
