<svg width="28" height="28" viewBox="0 0 28 28" fill="none" xmlns="http://www.w3.org/2000/svg">
<path d="M14 0.666748C14.7363 0.666748 15.3333 1.2637 15.3333 2.00008V17.4478L19.7238 13.0573C20.2445 12.5366 21.0887 12.5366 21.6094 13.0573C22.1301 13.578 22.1301 14.4222 21.6094 14.9429L14.9428 21.6096C14.4221 22.1303 13.5778 22.1303 13.0572 21.6096L6.39048 14.9429C5.86978 14.4222 5.86978 13.578 6.39048 13.0573C6.91118 12.5366 7.7554 12.5366 8.2761 13.0573L12.6666 17.4478V2.00008C12.6666 1.2637 13.2636 0.666748 14 0.666748Z" fill="#F0F2F6"/>
<path d="M1.99996 16.6667C2.73634 16.6667 3.33329 17.2637 3.33329 18.0001V23.3334C3.33329 24.0698 3.93025 24.6667 4.66663 24.6667H23.3333C24.0697 24.6667 24.6666 24.0698 24.6666 23.3334V18.0001C24.6666 17.2637 25.2636 16.6667 26 16.6667C26.7363 16.6667 27.3333 17.2637 27.3333 18.0001V23.3334C27.3333 25.5426 25.5424 27.3334 23.3333 27.3334H4.66663C2.45749 27.3334 0.666626 25.5426 0.666626 23.3334V18.0001C0.666626 17.2637 1.26358 16.6667 1.99996 16.6667Z" fill="#F0F2F6"/>
</svg>
