<svg width="32" height="32" viewBox="0 0 32 32" fill="none" xmlns="http://www.w3.org/2000/svg">
<path d="M13.3333 24.0001C12.597 24.0001 12 23.4031 12 22.6667L12 13.3334C12 12.597 12.597 12.0001 13.3333 12.0001C14.0697 12.0001 14.6667 12.597 14.6667 13.3334L14.6667 22.6667C14.6667 23.4031 14.0697 24.0001 13.3333 24.0001Z" fill="#F0F2F6"/>
<path d="M17.3333 22.6667C17.3333 23.4031 17.9303 24.0001 18.6667 24.0001C19.403 24.0001 20 23.4031 20 22.6667V13.3334C20 12.597 19.403 12.0001 18.6667 12.0001C17.9303 12.0001 17.3333 12.597 17.3333 13.3334V22.6667Z" fill="#F0F2F6"/>
<path fill-rule="evenodd" clip-rule="evenodd" d="M10.8706 4.78439L9.86667 6.66675H5.33333C4.59695 6.66675 4 7.2637 4 8.00008C4 8.73646 4.59695 9.33341 5.33333 9.33341H5.40884L6.50226 28.0777C6.54339 28.7827 7.12711 29.3334 7.83333 29.3334H24.1667C24.8729 29.3334 25.4566 28.7827 25.4977 28.0777L26.5912 9.33341H26.6667C27.403 9.33341 28 8.73646 28 8.00008C28 7.2637 27.403 6.66675 26.6667 6.66675H22.1333L21.1294 4.7844C20.4342 3.48094 19.0772 2.66675 17.6 2.66675H14.4C12.9228 2.66675 11.5658 3.48094 10.8706 4.78439ZM14.4 5.33341C13.9076 5.33341 13.4553 5.60481 13.2235 6.0393L12.8889 6.66675H19.1111L18.7765 6.0393C18.5447 5.60481 18.0924 5.33341 17.6 5.33341H14.4ZM23.92 9.33341H8.08004L9.09116 26.6667H22.9088L23.92 9.33341Z" fill="#F0F2F6"/>
</svg>
